<svg width="22" height="21" viewBox="0 0 22 21" fill="none" xmlns="http://www.w3.org/2000/svg">
<path d="M0.75 0.75L2.99865 1.12913L4.03974 13.2116C4.12298 14.1984 4.96947 14.9556 5.98569 14.9525H17.7792C18.749 14.9546 19.5717 14.2595 19.709 13.3243L20.7349 6.41792C20.8495 5.64598 20.2992 4.92986 19.5079 4.81823C19.4387 4.80875 3.35973 4.80348 3.35973 4.80348" stroke="#001833" stroke-width="1.5" stroke-linecap="round" stroke-linejoin="round"/>
<path d="M13.0469 8.696H16.0447" stroke="#001833" stroke-width="1.5" stroke-linecap="round" stroke-linejoin="round"/>
<path fill-rule="evenodd" clip-rule="evenodd" d="M5.50998 18.603C5.83539 18.603 6.09809 18.86 6.09809 19.1759C6.09809 19.4929 5.83539 19.7499 5.50998 19.7499C5.18458 19.7499 4.92188 19.4929 4.92188 19.1759C4.92188 18.86 5.18458 18.603 5.50998 18.603Z" fill="#001833" stroke="#001833" stroke-width="1.5" stroke-linecap="round" stroke-linejoin="round"/>
<path fill-rule="evenodd" clip-rule="evenodd" d="M17.7053 18.603C18.0307 18.603 18.2945 18.86 18.2945 19.1759C18.2945 19.4929 18.0307 19.7499 17.7053 19.7499C17.3799 19.7499 17.1172 19.4929 17.1172 19.1759C17.1172 18.86 17.3799 18.603 17.7053 18.603Z" fill="#001833" stroke="#001833" stroke-width="1.5" stroke-linecap="round" stroke-linejoin="round"/>
</svg>
