<svg width="22" height="18" viewBox="0 0 22 18" fill="none" xmlns="http://www.w3.org/2000/svg">
<path d="M19.4318 0H2.38636C1.07054 0 0 1.23491 0 2.75277V14.5504C0 16.0682 1.07054 17.3032 2.38636 17.3032H19.4318C20.7476 17.3032 21.8182 16.0682 21.8182 14.5504V2.75277C21.8182 1.23491 20.7476 0 19.4318 0ZM2.38636 1.57301H19.4318C19.9957 1.57301 20.4545 2.10228 20.4545 2.75277V4.32579H1.36364V2.75277C1.36364 2.10228 1.82246 1.57301 2.38636 1.57301ZM19.4318 15.7301H2.38636C1.82246 15.7301 1.36364 15.2009 1.36364 14.5504V5.8988H20.4545V14.5504C20.4545 15.2009 19.9957 15.7301 19.4318 15.7301Z" fill="white"/>
</svg>
