<svg width="19" height="19" viewBox="0 0 19 19" fill="none" xmlns="http://www.w3.org/2000/svg">
<path d="M2.0292 18.2628C1.47117 18.2628 0.993462 18.0641 0.596077 17.6667C0.198692 17.2693 1.56649e-08 16.7916 1.51443e-08 16.2336L1.89304e-09 2.0292C1.37245e-09 1.47117 0.198692 0.993462 0.596077 0.596077C0.993462 0.198692 1.47117 -1.37245e-09 2.0292 -1.89304e-09L9.13139 -8.51867e-09L9.13139 2.0292L2.0292 2.0292L2.0292 16.2336L9.13139 16.2336L9.13139 18.2628L2.0292 18.2628ZM13.1898 14.2044L11.7947 12.7332L14.3819 10.146L6.0876 10.146L6.0876 8.11679L14.3819 8.11679L11.7947 5.52957L13.1898 4.0584L18.2628 9.13139L13.1898 14.2044Z" fill="#FF3030"/>
</svg>
