<svg width="18" height="15" viewBox="0 0 18 15" fill="none" xmlns="http://www.w3.org/2000/svg">
<path fill-rule="evenodd" clip-rule="evenodd" d="M8.99837 5.07697C7.80136 5.07697 6.82845 6.05078 6.82845 7.24779C6.82845 8.44389 7.80136 9.4168 8.99837 9.4168C10.1954 9.4168 11.1692 8.44389 11.1692 7.24779C11.1692 6.05078 10.1954 5.07697 8.99837 5.07697ZM8.99844 10.7669C7.05713 10.7669 5.47852 9.18829 5.47852 7.24788C5.47852 5.30656 7.05713 3.72705 8.99844 3.72705C10.9398 3.72705 12.5193 5.30656 12.5193 7.24788C12.5193 9.18829 10.9398 10.7669 8.99844 10.7669Z" fill="#001833"/>
<mask id="mask0_2745_7894" style="mask-type:luminance" maskUnits="userSpaceOnUse" x="0" y="0" width="18" height="15">
<path fill-rule="evenodd" clip-rule="evenodd" d="M0 0H18V14.4946H0V0Z" fill="white"/>
</mask>
<g mask="url(#mask0_2745_7894)">
<path fill-rule="evenodd" clip-rule="evenodd" d="M1.41274 7.24685C3.08675 10.945 5.90647 13.1437 8.99979 13.1446C12.0931 13.1437 14.9128 10.945 16.5869 7.24685C14.9128 3.54963 12.0931 1.35091 8.99979 1.35001C5.90737 1.35091 3.08675 3.54963 1.41274 7.24685ZM9.00164 14.4948H8.99804H8.99714C5.27471 14.4921 1.93209 11.883 0.0546754 7.51344C-0.0182251 7.34334 -0.0182251 7.15074 0.0546754 6.98064C1.93209 2.61201 5.27561 0.00288674 8.99714 0.000186724C8.99894 -0.000713283 8.99894 -0.000713283 8.99984 0.000186724C9.00164 -0.000713283 9.00164 -0.000713283 9.00254 0.000186724C12.725 0.00288674 16.0676 2.61201 17.945 6.98064C18.0188 7.15074 18.0188 7.34334 17.945 7.51344C16.0685 11.883 12.725 14.4921 9.00254 14.4948H9.00164Z" fill="#001833"/>
</g>
<line x1="0.288342" y1="0.591516" x2="17.2883" y2="12.5915" stroke="#001833"/>
</svg>
