<svg width="28" height="27" viewBox="0 0 28 27" fill="none" xmlns="http://www.w3.org/2000/svg">
<mask id="mask0_2812_3718" style="mask-type:luminance" maskUnits="userSpaceOnUse" x="4" y="16" width="20" height="9">
<path fill-rule="evenodd" clip-rule="evenodd" d="M4.66797 16.3086H23.1478V24.6043H4.66797V16.3086Z" fill="white"/>
</mask>
<g mask="url(#mask0_2812_3718)">
<path fill-rule="evenodd" clip-rule="evenodd" d="M13.9091 17.9961C8.93797 17.9961 6.41797 18.8196 6.41797 20.4452C6.41797 22.0855 8.93797 22.9168 13.9091 22.9168C18.8791 22.9168 21.398 22.0933 21.398 20.4677C21.398 18.8275 18.8791 17.9961 13.9091 17.9961M13.9091 24.6043C11.6236 24.6043 4.66797 24.6043 4.66797 20.4452C4.66797 16.7372 9.94247 16.3086 13.9091 16.3086C16.1946 16.3086 23.148 16.3086 23.148 20.4677C23.148 24.1757 17.8746 24.6043 13.9091 24.6043" fill="#001833"/>
</g>
<mask id="mask1_2812_3718" style="mask-type:luminance" maskUnits="userSpaceOnUse" x="7" y="2" width="14" height="13">
<path fill-rule="evenodd" clip-rule="evenodd" d="M7.71289 2.25049H20.1029V14.1964H7.71289V2.25049Z" fill="white"/>
</mask>
<g mask="url(#mask1_2812_3718)">
<path fill-rule="evenodd" clip-rule="evenodd" d="M13.9091 3.8565C11.4113 3.8565 9.37893 5.81512 9.37893 8.22375C9.37077 10.6245 11.3879 12.582 13.8753 12.591L13.9091 13.3942V12.591C16.4058 12.591 18.4369 10.6312 18.4369 8.22375C18.4369 5.81512 16.4058 3.8565 13.9091 3.8565M13.9091 14.1964H13.8718C10.4628 14.1863 7.70126 11.5054 7.71293 8.22038C7.71293 4.92975 10.4919 2.25 13.9091 2.25C17.3251 2.25 20.1029 4.92975 20.1029 8.22375C20.1029 11.5178 17.3251 14.1964 13.9091 14.1964" fill="#001833"/>
</g>
</svg>
